<svg xmlns="http://www.w3.org/2000/svg" viewBox="0 0 4804.26 1050.082" transform="scale(1 -1)" width="4804.26" height="1050.082"><path d="M4804.26 0v1050.082H0V354.921c4.592.152 9.613.581 14.961 1.388 3.986 7.695 11.783 12.438 26.515 16.424 44.05 11.884 92.565 14.153 128.112 52.528 14.28 15.441 46.723 5.046 63.753 25.152 29.493 34.816 75.03 19.225 110.378 35.271 92.414 41.931 195.852 22.076 290.208 52.098 29.165 9.259 55.782 24.876 87.116 29.518 42.889 6.359 84.291 14.102 115.07-27.727 13.572-18.443 32.496-11 48.591-5.954 22.984 7.189 42.839 4.465 59.262-12.438 5.046-5.171 6.736-4.718 13.169-3.507 53.436 10.218 107.021 19.805 160.733 28.459 57.472 9.259 116.281 13.093 172.314 27.677 26.97 7.014 53.965 17.685 81.692 24.75 61.004 15.591 119.056 9.487 175.039-19.528 5.55-2.902 10.899-6.913 20.562-4.44 46.145 11.783 92.666 17.887 137.296-7.644 5.097-2.902 13.396-1.59 19.907-.48 83.86 14.304 168.253 2.825 252.342 4.162 25.935.404 49.651-19.678 74.678-29.543 50.811-20.032 103.287-35.85 152.812-59.666 23.993-11.53 52.602-.857 79.144-1.765 29.921-1.034 60.146 2.825 89.766-3.355 7.189-1.513 12.312-.732 18.77 1.513 15.718 5.424 28.433-.605 39.61-12.059 11-11.303 23.262-19.603 40.09-11.227 7.291 3.632 14.432 2.623 22.05-.202 26.843-9.967 53.158-21.369 81.793-26.364 22.655-3.935 33.529-22.555 42.561-41.148 9.411-19.401 23.993-29.064 45.16-27.576 36.455 2.522 71.398-9.764 106.946-11.026 47.279-1.691 96.577-14.003 141.509 12.009 12.135 7.038 25.304 6.938 35.951 3.482 17.129-5.601 34.034-5.299 50.887-4.213 26.717 1.715 50.08 1.236 70.49-22.05 11.58-13.22 29.316-3.128 41.779 7.972 50.104 44.656 88.907 48.187 146.858 14.709 17.105-9.889 34.235-14.608 56.412-9.916 18.317 3.861 42.157 2.724 50.736-26.667 8.377-28.659 36.583-41.376 60.247-56.488 13.295-8.502 27.374-14.734 36.985-29.139 16.878-25.304 54.266-28.989 77.73-10.899 17.988 13.851 36.455 27.147 61.786 23.06 11.454-1.843 20.032-1.563 22.555 16.147 2.977 20.788 20.612 23.161 32.975 5.752 8.528-12.035 18.719-14.885 28.837-7.014 21.344 16.6 45.615 10.696 61.206-.833 42.788-31.636 88.528-29.165 135.959-21.672 6.761 1.06 10.622-2.422 15.819-3.784 85.652-22.454 172.971-7.72 259.454-11.756 18.645-.857 29.064 19.981 49.625 17.887 14.986-1.539 27.071-3.659 37.667-15.441 15.894-17.685 32.848-34.664 60.197-31.612 7.695.857 12.059-5.677 15.894-10.797 19.199-25.784 45.109-31.486 75.763-29.618 32.672 1.994 65.52.48 98.318.429 12.514-.025 21.898 3.935 32.547 12.387 13.068 10.395 30.451 18.544 47.633-.025 16.197-17.51 59.592-16.551 77.528-.833 3.456 3.027 5.525 8.249 9.386 10.066 25.557 12.16 94.104-1.413 115.12-21.949 8.124-7.922 16.954-15.111 25.482-22.631V0h.504Z" style="fill:#005bc9;stroke-width:0"/></svg>